<svg id="regular" enable-background="new 0 0 24 24" height="512" viewBox="0 0 24 24" width="512" xmlns="http://www.w3.org/2000/svg"><g><g><path d="m21.25.75h-18.5c-1.1 0-2 .9-2 2v13.5c0 1.1.9 2 2 2h2v5l5-5h11.5c1.1 0 2-.9 2-2v-13.5c0-1.1-.9-2-2-2z" fill="#2196f3"/></g><g><path d="m4.75 24c-.097 0-.194-.019-.287-.057-.28-.116-.463-.389-.463-.693v-4.25h-1.25c-1.517 0-2.75-1.233-2.75-2.75v-13.5c0-1.517 1.233-2.75 2.75-2.75h18.5c1.517 0 2.75 1.233 2.75 2.75v13.5c0 1.517-1.233 2.75-2.75 2.75h-11.189l-4.78 4.78c-.144.144-.336.22-.531.22zm-2-22.5c-.689 0-1.25.561-1.25 1.25v13.5c0 .689.561 1.25 1.25 1.25h2c.414 0 .75.336.75.75v3.189l3.72-3.72c.141-.141.332-.22.53-.22h11.5c.689 0 1.25-.561 1.25-1.25v-13.499c0-.689-.561-1.25-1.25-1.25z"/></g><g><path d="m5 14.25c-.689 0-1.25-.561-1.25-1.25s.561-1.25 1.25-1.25 1.25.561 1.25 1.25-.561 1.25-1.25 1.25z" fill="#ffc107"/></g><g><path d="m10 10.25c-.689 0-1.25-.561-1.25-1.25s.561-1.25 1.25-1.25 1.25.561 1.25 1.25-.561 1.25-1.25 1.25z" fill="#ffc107"/></g><g><path d="m16 14.25c-.689 0-1.25-.561-1.25-1.25s.561-1.25 1.25-1.25 1.25.561 1.25 1.25-.561 1.25-1.25 1.25z" fill="#ffc107"/></g><g><path d="m19 7.25c-.689 0-1.25-.561-1.25-1.25s.561-1.25 1.25-1.25 1.25.561 1.25 1.25-.561 1.25-1.25 1.25z" fill="#ffc107"/></g><g><path d="m5 15c-1.103 0-2-.897-2-2s.897-2 2-2 2 .897 2 2-.897 2-2 2zm0-2.5c-.276 0-.5.225-.5.5s.224.5.5.5.5-.225.5-.5-.224-.5-.5-.5z"/></g><g><path d="m10 11c-1.103 0-2-.897-2-2s.897-2 2-2 2 .897 2 2-.897 2-2 2zm0-2.5c-.276 0-.5.225-.5.5s.224.5.5.5.5-.225.5-.5-.224-.5-.5-.5z"/></g><g><path d="m16 15c-1.103 0-2-.897-2-2s.897-2 2-2 2 .897 2 2-.897 2-2 2zm0-2.5c-.276 0-.5.225-.5.5s.224.5.5.5.5-.225.5-.5-.224-.5-.5-.5z"/></g><g><path d="m19 8c-1.103 0-2-.897-2-2s.897-2 2-2 2 .897 2 2-.897 2-2 2zm0-2.5c-.276 0-.5.225-.5.5s.224.5.5.5.5-.225.5-.5-.224-.5-.5-.5z"/></g><g><path d="m6.161 12.82c-.22 0-.438-.097-.586-.282-.259-.323-.206-.795.118-1.054l2.68-2.141c.325-.258.796-.205 1.054.118.259.323.206.795-.118 1.054l-2.68 2.141c-.139.111-.304.164-.468.164z"/></g><g><path d="m16.589 12.38c-.098 0-.199-.02-.295-.061-.381-.163-.557-.604-.394-.984l1.82-4.25c.163-.381.605-.556.985-.395.381.163.557.604.394.984l-1.82 4.25c-.122.286-.399.456-.69.456z"/></g><g><path d="m14.75 12.92c-.144 0-.288-.041-.417-.127l-3.5-2.34c-.344-.229-.437-.695-.207-1.04.23-.344.696-.437 1.041-.206l3.5 2.34c.344.229.437.695.207 1.04-.145.216-.383.333-.624.333z"/></g><g><path d="m4.75 24c-.097 0-.194-.019-.287-.057-.28-.116-.463-.389-.463-.693v-4.25h-1.25c-1.517 0-2.75-1.233-2.75-2.75v-13.5c0-1.517 1.233-2.75 2.75-2.75h18.5c1.517 0 2.75 1.233 2.75 2.75v13.5c0 1.517-1.233 2.75-2.75 2.75h-11.189l-4.78 4.78c-.144.144-.336.22-.531.22zm-2-22.5c-.689 0-1.25.561-1.25 1.25v13.5c0 .689.561 1.25 1.25 1.25h2c.414 0 .75.336.75.75v3.189l3.72-3.72c.141-.141.332-.22.53-.22h11.5c.689 0 1.25-.561 1.25-1.25v-13.499c0-.689-.561-1.25-1.25-1.25z"/></g></g></svg>